<svg xmlns="http://www.w3.org/2000/svg" width="23.315" height="23.315" viewBox="0 0 23.315 23.315"><g transform="translate(89.413 -214.588)"><g transform="translate(-89.413 214.588)"><path d="M13.244,1.588a6.106,6.106,0,1,0,6.108,6.106A6.114,6.114,0,0,0,13.244,1.588Zm0,1.11a5,5,0,1,1-5,5A4.989,4.989,0,0,1,13.244,2.7ZM8.9,13.217a.555.555,0,0,0-.152.017C4.427,14.34,1.587,17,1.587,19.907v2.22a.555.555,0,0,0,.307.5A27.6,27.6,0,0,0,13.245,24.9,27.6,27.6,0,0,0,24.6,22.624a.555.555,0,0,0,.307-.5v-2.22c0-2.911-2.84-5.567-7.158-6.672a.555.555,0,0,0-.462.088,6.873,6.873,0,0,1-8.076,0,.555.555,0,0,0-.311-.105Zm-.087,1.159a7.878,7.878,0,0,0,8.872,0c3.878,1.059,6.112,3.411,6.112,5.531v1.857a26.075,26.075,0,0,1-10.547,2.029A26.075,26.075,0,0,1,2.7,21.764V19.907C2.7,17.788,4.931,15.435,8.808,14.376Z" transform="translate(-1.587 -1.588)" fill="#626262" fill-rule="evenodd"/></g></g></svg>